<mxfile host="app.diagrams.net" modified="2021-12-08T12:53:37.431Z" agent="5.0 (Windows NT 10.0; Win64; x64) AppleWebKit/537.36 (KHTML, like Gecko) Chrome/96.0.4664.45 Safari/537.36" etag="kVFTEG213-vNGxGIGVBq" version="15.9.2" type="github">
  <diagram id="GrHb8ezzIo12st1I7N60" name="Page-1">
    <mxGraphModel dx="460" dy="784" grid="1" gridSize="10" guides="1" tooltips="1" connect="1" arrows="1" fold="1" page="1" pageScale="1" pageWidth="827" pageHeight="1169" math="0" shadow="0">
      <root>
        <mxCell id="0" />
        <mxCell id="1" parent="0" />
        <mxCell id="JS3sSckHVWCfKkDNMiwC-3" style="edgeStyle=orthogonalEdgeStyle;rounded=0;orthogonalLoop=1;jettySize=auto;html=1;exitX=0.5;exitY=1;exitDx=0;exitDy=0;entryX=0.5;entryY=0;entryDx=0;entryDy=0;" edge="1" parent="1" source="JS3sSckHVWCfKkDNMiwC-1" target="JS3sSckHVWCfKkDNMiwC-2">
          <mxGeometry relative="1" as="geometry" />
        </mxCell>
        <mxCell id="JS3sSckHVWCfKkDNMiwC-1" value="Main" style="rounded=1;whiteSpace=wrap;html=1;" vertex="1" parent="1">
          <mxGeometry x="360" y="130" width="120" height="60" as="geometry" />
        </mxCell>
        <mxCell id="JS3sSckHVWCfKkDNMiwC-9" style="edgeStyle=orthogonalEdgeStyle;rounded=0;orthogonalLoop=1;jettySize=auto;html=1;exitX=0.5;exitY=1;exitDx=0;exitDy=0;entryX=0.5;entryY=0;entryDx=0;entryDy=0;" edge="1" parent="1" source="JS3sSckHVWCfKkDNMiwC-2" target="JS3sSckHVWCfKkDNMiwC-8">
          <mxGeometry relative="1" as="geometry" />
        </mxCell>
        <mxCell id="JS3sSckHVWCfKkDNMiwC-2" value="Inicialize registrů&lt;br&gt;a periferie*" style="rounded=0;whiteSpace=wrap;html=1;" vertex="1" parent="1">
          <mxGeometry x="360" y="280" width="120" height="60" as="geometry" />
        </mxCell>
        <mxCell id="JS3sSckHVWCfKkDNMiwC-5" value="* zahrnuje i nahrání speciálních znaků do paměti řadiče LCD displeje&amp;nbsp;" style="text;html=1;strokeColor=none;fillColor=none;align=center;verticalAlign=middle;whiteSpace=wrap;rounded=0;" vertex="1" parent="1">
          <mxGeometry x="490" y="285" width="230" height="50" as="geometry" />
        </mxCell>
        <mxCell id="JS3sSckHVWCfKkDNMiwC-6" value="while (1)" style="rhombus;whiteSpace=wrap;html=1;" vertex="1" parent="1">
          <mxGeometry x="355" y="540" width="130" height="80" as="geometry" />
        </mxCell>
        <mxCell id="JS3sSckHVWCfKkDNMiwC-10" style="edgeStyle=orthogonalEdgeStyle;rounded=0;orthogonalLoop=1;jettySize=auto;html=1;exitX=0.5;exitY=1;exitDx=0;exitDy=0;entryX=0.5;entryY=0;entryDx=0;entryDy=0;" edge="1" parent="1" source="JS3sSckHVWCfKkDNMiwC-8" target="JS3sSckHVWCfKkDNMiwC-6">
          <mxGeometry relative="1" as="geometry" />
        </mxCell>
        <mxCell id="JS3sSckHVWCfKkDNMiwC-8" value="Povolení přerušení" style="rounded=0;whiteSpace=wrap;html=1;" vertex="1" parent="1">
          <mxGeometry x="360" y="420" width="120" height="60" as="geometry" />
        </mxCell>
      </root>
    </mxGraphModel>
  </diagram>
</mxfile>
